<svg xmlns="http://www.w3.org/2000/svg" xmlns:xlink="http://www.w3.org/1999/xlink" width="16" height="16" viewBox="0 0 16 16"><defs><path id="m68ya" d="M402.528 471.067a.808.808 0 0 1 .043-1.099.812.812 0 0 1 1.1-.042l1.05 1.044v-8.16a.81.81 0 0 1 1.62 0v8.16l1.055-1.044a.812.812 0 0 1 1.1.042c.3.3.318.778.042 1.099l-2.431 2.428a.725.725 0 0 1-.187.133l-.08.045-.082.024-.069.02a.78.78 0 0 1-.316 0l-.069-.02-.08-.024-.082-.045a.725.725 0 0 1-.186-.134zm10.472-.702v5.839c0 .992-.754 1.796-1.684 1.796h-12.632c-.93 0-1.684-.804-1.684-1.796v-5.84c0-.495.377-.897.842-.897.465 0 .842.402.842.898v5.839h12.632v-5.84c0-.495.377-.897.842-.897.465 0 .842.402.842.898z"/></defs><g><g transform="translate(-397 -462)"><use fill="#b6b8c6" xlink:href="#m68ya"/></g></g></svg>