<svg xmlns="http://www.w3.org/2000/svg" xmlns:xlink="http://www.w3.org/1999/xlink" width="30" height="32" viewBox="0 0 30 32"><defs><path id="y3mza" d="M1339.243 177.927c.652.107 1.34-.252 1.522-.934.18-.682-.29-1.4-.978-1.58a.772.772 0 0 0-.688.144c-.11 0-.182.036-.29.108-.29.144-.471.467-.58.754-.18.646.326 1.364 1.014 1.508zm-9.163-2.513a.772.772 0 0 0-.688.143c-.109 0-.181.036-.29.108-.29.144-.47.467-.58.754-.18.682.29 1.4.978 1.543.652.108 1.34-.25 1.522-.933.18-.718-.29-1.436-.942-1.615z"/><path id="y3mzb" d="M1346.56 177.496c-.109.503-.797 2.515-1.557 2.3.072-.288.145-.54.18-.827.29-1.365.653-3.018.58-4.455.181 0 .326.036.507.036.471.898.471 1.976.29 2.946zm-12.496-5.351a162.434 162.434 0 0 0-7.244.036c-1.267.036-2.571.036-3.839.143.362-1.471.471-2.98.942-4.415.543-1.687 1.413-3.339 2.608-4.667 2.173-2.37 5.288-3.698 8.511-3.518 6.592.359 11.192 6.641 10.794 12.888-3.912-.324-7.86-.431-11.772-.467zm7.606 11.236c-1.412 2.764-3.875 4.308-7.062 4.344-3.369.036-6.158-1.651-7.788-4.56-1.593-2.871-1.195-6.138-1.702-9.261.507 0 1.014-.036 1.521-.036 2.463 0 4.962 0 7.425.036 3.188.072 6.375.18 9.562.395-.145 1.543-.108 2.98-.398 4.487-.326 1.58-.797 3.16-1.558 4.595zm-17.856-4.523c-.507-.072-.978-.215-1.304-.718-.29-.43-.217-.897-.18-1.364.072-.934.289-1.975.76-2.836h.87c-.218 1.58-.29 3.267-.146 4.918zm16.01-19.637c-5.325-2.477-11.627-.969-15.177 3.626-2.028 2.62-3.15 6.318-3.187 9.657a7.28 7.28 0 0 0-1.268.323c-.326.108-.398.646 0 .718.218.072.435.108.688.144-.543 1.328-.76 2.943-.507 4.236.29 1.651 2.137 2.872 3.695 2.333.616 3.626 2.427 6.929 6.085 8.508 2.499 1.077 5.541 1.185 8.113.251 2.644-.933 4.382-2.907 5.505-5.384.399-.898.725-1.795 1.014-2.729.978.252 2.174-.538 2.68-1.472.761-1.364.942-3.159.616-4.738.073 0 .145 0 .254.036 1.268.143 1.268-1.831 0-1.939-.181-.036-.399-.036-.58-.072.399-5.636-2.716-11.057-7.932-13.498z"/><path id="y3mzc" d="M1331.168 183.202c1.05 3.123 5.252 2.62 6.846.323.76-1.04-.942-1.974-1.703-1.005-1.231 1.58-2.861.898-4.201-.072-.435-.323-1.123.252-.942.754z"/></defs><g><g transform="translate(-1320 -158)"><g><use fill="#98a5b3" xlink:href="#y3mza"/></g><g><use fill="#98a5b3" xlink:href="#y3mzb"/></g><g><use fill="#98a5b3" xlink:href="#y3mzc"/></g></g></g></svg>